<svg width="24" height="24" viewBox="2 2 20 16" fill="none" xmlns="http://www.w3.org/2000/svg">
<g filter="url(#filter0_dd)">
<path d="M14.608 17.6906C14.9045 17.9321 14.9515 18.3713 14.7129 18.6715C14.5366 18.8935 14.3327 19.0922 14.1167 19.255C13.3891 19.826 12.464 20.0849 11.5453 19.9754C10.6258 19.8659 9.787 19.3962 9.21459 18.6689C8.9774 18.3676 9.02646 17.9286 9.32418 17.6885C9.62189 17.4484 10.0555 17.4981 10.2927 17.7995C10.6379 18.2381 11.1467 18.523 11.7064 18.5896C12.2669 18.6564 12.8307 18.4986 13.2826 18.1443C13.4158 18.0437 13.5355 17.927 13.6389 17.7969C13.8775 17.4967 14.3114 17.4491 14.608 17.6906ZM5.15213 6.99974L5.16444 6.40391C5.17324 6.14906 5.18686 5.91248 5.20685 5.68096C5.50654 2.44456 8.59565 0 11.9648 0H12.0361C15.4034 0 18.4934 2.44285 18.8034 5.68536C18.8212 5.89148 18.8288 6.07458 18.8311 6.33206L18.832 7.11982C18.8327 7.19158 18.8339 7.25469 18.8358 7.31353L18.845 7.50977L18.8896 7.69688C19.0303 8.21802 19.2776 8.70525 19.6162 9.12821L19.7669 9.30546L19.8286 9.38467C20.2348 9.99168 20.4668 10.698 20.5 11.4587L20.499 11.862C20.4707 12.763 20.1399 13.6331 19.5338 14.3582C18.7311 15.2101 17.6434 15.7393 16.4873 15.8457C13.502 16.1699 10.49 16.1699 7.51296 15.8466C6.34896 15.7346 5.26444 15.2069 4.42663 14.3223C3.80882 13.5691 3.48041 12.6208 3.5009 11.6624L3.50175 11.4242C3.53744 10.6955 3.76804 9.98985 4.16936 9.3802L4.23653 9.29378C4.70525 8.77993 5.02569 8.15105 5.16473 7.47306L5.14969 7.53395L5.15213 6.99974ZM12.0361 1.39535H11.9648C9.26651 1.39535 6.80804 3.34087 6.57967 5.80678C6.56798 5.94228 6.55866 6.08207 6.55137 6.2292L6.53532 6.69559L6.52879 7.61486L6.51441 7.75667C6.32444 8.68301 5.88728 9.54093 5.24929 10.2404L5.29856 10.1833L5.21045 10.3291C5.04539 10.6265 4.9389 10.9495 4.89682 11.2682L4.87935 11.4587L4.87919 11.6774C4.86568 12.3142 5.08086 12.9356 5.45369 13.3931C6.02881 13.9985 6.80682 14.377 7.65168 14.4583C10.5393 14.7719 13.4527 14.7719 16.3514 14.4572C17.1871 14.3802 17.9645 14.002 18.5084 13.4267C18.92 12.933 19.1375 12.3097 19.1216 11.6536L19.1224 11.4901C19.1013 11.0186 18.951 10.5613 18.6873 10.1672L18.7026 10.1926L18.5647 10.0309C18.0893 9.44409 17.744 8.76351 17.5517 8.03396L17.4868 7.75818L17.4739 7.66551C17.4642 7.53013 17.4585 7.40982 17.4555 7.26514L17.4528 6.3605C17.4509 6.13044 17.4447 5.97558 17.4307 5.81326C17.1944 3.34075 14.7336 1.39535 12.0361 1.39535Z" fill="#EA7C69"/>
</g>
<defs>
<filter id="filter0_dd" x="-0.5" y="0" width="25" height="28" filterUnits="userSpaceOnUse" color-interpolation-filters="sRGB">
<feFlood flood-opacity="0" result="BackgroundImageFix"/>
<feColorMatrix in="SourceAlpha" type="matrix" values="0 0 0 0 0 0 0 0 0 0 0 0 0 0 0 0 0 0 127 0"/>
<feOffset dy="4"/>
<feGaussianBlur stdDeviation="2"/>
<feColorMatrix type="matrix" values="0 0 0 0 0 0 0 0 0 0 0 0 0 0 0 0 0 0 0.25 0"/>
<feBlend mode="normal" in2="BackgroundImageFix" result="effect1_dropShadow"/>
<feColorMatrix in="SourceAlpha" type="matrix" values="0 0 0 0 0 0 0 0 0 0 0 0 0 0 0 0 0 0 127 0"/>
<feOffset dy="4"/>
<feGaussianBlur stdDeviation="2"/>
<feColorMatrix type="matrix" values="0 0 0 0 0 0 0 0 0 0 0 0 0 0 0 0 0 0 0.25 0"/>
<feBlend mode="normal" in2="effect1_dropShadow" result="effect2_dropShadow"/>
<feBlend mode="normal" in="SourceGraphic" in2="effect2_dropShadow" result="shape"/>
</filter>
</defs>
</svg>
