<svg width="92" height="102" viewBox="0 0 92 102" fill="none" xmlns="http://www.w3.org/2000/svg">
<g clip-path="url(#clip0)">
<path d="M0 22C0 15.3726 5.37258 10 12 10H92V90H12C5.37259 90 0 84.6274 0 78V22Z" fill="#1F1D2B"/>
<path d="M88.5 6C92.5 2 92 -2 92 -2V10H80C80 10 84.5 10 88.5 6Z" fill="#1F1D2B"/>
<path d="M88.01 93.51C84.01 89.51 80.01 90.01 80.01 90.01H92.01V102.01C92.01 102.01 92.01 97.51 88.01 93.51Z" fill="#1F1D2B"/>
<rect x="12" y="23" width="56" height="56" rx="8" fill="#1F1D2B"/>
<path d="M40.6161 41C41.3251 40.9997 42.0041 41.2806 42.4983 41.7787C42.9925 42.2768 43.2599 42.9497 43.2383 43.5777L43.2468 43.7254C43.2641 43.8708 43.3124 44.0112 43.3908 44.1405C43.5435 44.3957 43.7935 44.5808 44.0857 44.6551C44.3779 44.7295 44.6882 44.6869 44.9821 44.5184L45.146 44.4355C46.3759 43.869 47.8511 44.3192 48.5333 45.4793L49.1465 46.5217C49.1627 46.5492 49.1769 46.5776 49.1892 46.6067L49.2461 46.7184C49.7945 47.8652 49.4043 49.2293 48.3624 49.9223L48.1051 50.0807C47.9706 50.1726 47.8585 50.2926 47.7742 50.4368C47.6218 50.6929 47.58 50.998 47.658 51.2844C47.736 51.5708 47.9272 51.8149 48.2174 51.9793L48.3843 52.0841C48.8887 52.4297 49.253 52.9391 49.4119 53.523C49.5912 54.1817 49.495 54.8833 49.1399 55.4804L48.4803 56.557L48.3808 56.7089C47.6058 57.8008 46.1011 58.1344 44.9527 57.485L44.8166 57.4163C44.6746 57.3541 44.5214 57.3199 44.382 57.316C44.0786 57.3146 43.7872 57.432 43.5727 57.6422C43.3582 57.8524 43.2383 58.1379 43.2391 58.4698L43.231 58.6414C43.12 59.9703 41.9845 61 40.6164 61H39.3811C37.9322 61 36.7577 59.8493 36.7591 58.4753L36.7506 58.3277C36.7334 58.1822 36.685 58.0418 36.6027 57.9057C36.4534 57.65 36.2059 57.4633 35.9154 57.3871C35.6248 57.3109 35.3153 57.3516 35.0157 57.5213L34.8376 57.6084C34.2746 57.8565 33.6395 57.9023 33.0445 57.7366C32.3731 57.5497 31.8054 57.1083 31.4741 56.5224L30.8368 55.4442L30.752 55.2844C30.1716 54.0841 30.6265 52.6412 31.7811 51.9875L31.8865 51.9228C32.1949 51.7137 32.3799 51.3688 32.3799 51C32.3799 50.599 32.1615 50.2284 31.7795 50.0115L31.6245 49.9141C30.51 49.1548 30.1695 47.6805 30.8599 46.507L31.5092 45.4617C32.2313 44.2338 33.8316 43.8102 35.0624 44.5017L35.1956 44.5713C35.3314 44.6324 35.479 44.6648 35.621 44.6663C36.2474 44.6663 36.7578 44.1735 36.7672 43.5418L36.7758 43.3478C36.827 42.7472 37.0931 42.1827 37.528 41.7546C38.0186 41.2716 38.6855 41 39.3811 41H40.6161ZM40.6164 42.4477H39.3811C39.0786 42.4477 38.7887 42.5658 38.5753 42.7758C38.3863 42.962 38.2706 43.2074 38.2503 43.4366L38.2368 43.7415C38.1334 45.0709 36.9997 46.1142 35.6133 46.114C35.2559 46.1103 34.9036 46.0329 34.5443 45.8703L34.3519 45.7709C33.8038 45.4632 33.1049 45.6482 32.7806 46.1992L32.1313 47.2446C31.8338 47.7504 31.9826 48.3947 32.4432 48.7092L32.704 48.871C33.422 49.3467 33.8575 50.1429 33.8575 51C33.8575 51.8446 33.4341 52.634 32.7022 53.1296L32.5464 53.2256C32.0335 53.5163 31.8356 54.144 32.074 54.6383L32.1303 54.7449L32.7595 55.8084C32.9073 56.0696 33.1552 56.2624 33.4484 56.344C33.7083 56.4164 33.9857 56.3964 34.2021 56.3018L34.3108 56.2497C34.911 55.9066 35.6261 55.8126 36.2974 55.9886C36.9686 56.1645 37.5403 56.5959 37.8794 57.1768C38.0618 57.478 38.1772 57.8132 38.2219 58.1985L38.2421 58.552C38.3043 59.1145 38.7905 59.5523 39.3811 59.5523H40.6164C41.2137 59.5523 41.7099 59.1023 41.7565 58.5511L41.7621 58.4421C41.7588 57.7585 42.0345 57.1019 42.5279 56.6185C43.0212 56.1351 43.6914 55.865 44.4053 55.8686C44.7556 55.8778 45.1004 55.9547 45.4528 56.11L45.7687 56.2682C46.2647 56.4814 46.8529 56.3258 47.1511 55.9067L47.2236 55.7957L47.868 54.7436C48.0203 54.4875 48.0621 54.1824 47.9841 53.896C47.915 53.6422 47.7566 53.4207 47.5645 53.2882L47.2922 53.1195C46.7716 52.7748 46.3932 52.2563 46.2302 51.6574C46.0509 50.9987 46.1471 50.2971 46.4946 49.7126C46.6849 49.3872 46.9464 49.1073 47.2873 48.8753L47.448 48.7761C47.9601 48.4827 48.1578 47.855 47.9212 47.3588L47.8505 47.2253L47.8378 47.1973L47.253 46.2021C46.9764 45.7318 46.4008 45.5285 45.9125 45.6891L45.8015 45.7327L45.6983 45.7842C45.1001 46.1294 44.3863 46.2274 43.7143 46.0564C43.0423 45.8855 42.4673 45.4596 42.1181 44.8762C41.9357 44.575 41.8203 44.2398 41.7756 43.8545L41.7624 43.6025C41.7713 43.2992 41.6546 43.0054 41.4387 42.7878C41.2229 42.5703 40.9264 42.4477 40.6164 42.4477ZM40.0032 47.7318C41.8455 47.7318 43.339 49.195 43.339 51C43.339 52.805 41.8455 54.2682 40.0032 54.2682C38.161 54.2682 36.6675 52.805 36.6675 51C36.6675 49.195 38.161 47.7318 40.0032 47.7318ZM40.0032 49.1796C38.977 49.1796 38.1452 49.9946 38.1452 51C38.1452 52.0054 38.977 52.8204 40.0032 52.8204C41.0294 52.8204 41.8613 52.0054 41.8613 51C41.8613 49.9946 41.0294 49.1796 40.0032 49.1796Z" fill="#EA7C69"/>
</g>
<defs>
<clipPath id="clip0">
<path d="M0 10C0 4.47715 4.47715 0 10 0H82C87.5228 0 92 4.47715 92 10V92C92 97.5228 87.5228 102 82 102H10C4.47715 102 0 97.5228 0 92V10Z" fill="white"/>
</clipPath>
</defs>
</svg>
